<svg id="gears" version="1.1" onload="init(evt)" xmlns:svg="http://www.w3.org/2000/svg"
	 xmlns="http://www.w3.org/2000/svg" xmlns:xlink="http://www.w3.org/1999/xlink" x="0px" y="0px" viewBox="0 0 425.2 425.2"
	 enable-background="new 0 0 425.2 425.2" xml:space="preserve">
<script  type="text/ecmascript">
	<![CDATA[
  	var svgNS = "http://www.w3.org/2000/svg";

	function init(evt)
	{
		if ( window.svgDocument == null )
		{
			svgDocument = evt.target.ownerDocument;
		}
		addRotateTransform('gear-1', 12, 1);
		addRotateTransform('gear-2', 16, -1);
		addRotateTransform('gear-3', 16, -1);
		addRotateTransform('gear-4', 4, 1);
		addRotateTransform('gear-5', 32, -1);
		addRotateTransform('gear-6', 12, 1);
	}

	function addRotateTransform(target_id, speed, direction)
	{
		var element_to_rotate = svgDocument.getElementById(target_id);
		var my_transform = svgDocument.createElementNS(svgNS, "animateTransform");

		var bb = element_to_rotate.getBBox();
		var cx = bb.x + bb.width/2;
		var cy = bb.y + bb.height/2;

		my_transform.setAttributeNS(null, "attributeName", "transform");
		my_transform.setAttributeNS(null, "attributeType", "XML");
		my_transform.setAttributeNS(null, "type", "rotate");
		my_transform.setAttributeNS(null, "dur", speed + "s");
		my_transform.setAttributeNS(null, "repeatCount", "indefinite");
		my_transform.setAttributeNS(null, "from", "0 "+cx+" "+cy);
		my_transform.setAttributeNS(null, "to", 360*direction+" "+cx+" "+cy);

		element_to_rotate.appendChild(my_transform);
		my_transform.beginElement();
	}	
		
		]]>
</script>
<g transform="translate(132, 84)">
	<path id="gear-3" fill="#50D741" stroke="#FFFFFF" stroke-width="2" stroke-linejoin="round" stroke-miterlimit="10" d="
		M255.6,33.9l0.6,0.1l2.4,1l2.8,1.7l-0.7,2.9l-3.2,0.2l-2.6-0.2l-0.6-0.1l-1.1,3.6l0.5,0.3l2.2,1.3l2.6,2.1l-1.1,2.8l-3.3-0.2
		l-2.5-0.6l-0.5-0.3l-1.6,3.4l0.5,0.3l2,1.5l2.2,2.4l-1.4,2.6l-3.2-0.7l-2.4-0.9l-0.5-0.3l-2.1,3.2l0.4,0.3l1.9,1.8l1.9,2.7
		l-1.7,2.4l-3.1-1.1l-2.4-1.4l-0.4-0.3l-2.4,2.9l0.4,0.4l1.6,2l1.6,2.9l-2,2.1l-3-1.4l-2.1-1.5l-0.4-0.4l-2.9,2.5l0.4,0.4l1.4,2.2
		l1.1,3l-2.2,1.9l-2.7-1.9l-1.9-1.8l-0.3-0.5l-3.1,2.1l0.3,0.5l1,2.4l0.8,3.2l-2.5,1.5l-2.5-2.2l-1.6-2l-0.3-0.5l-3.4,1.8l0.3,0.5
		l0.6,2.5l0.4,3.3l-2.7,1.1l-2.1-2.4l-1.4-2.2l-0.1-0.6l-3.5,1.4l0.1,0.6l0.4,2.6l-0.1,3.3l-2.9,0.8l-1.8-2.8l-1-2.4l-0.1-0.6
		l-3.7,0.8l0.1,0.5l0.1,2.6l-0.5,3.2l-2.9,0.4l-1.5-3l-0.6-2.5l-0.1-0.5l-3.9,0.4l0.1,0.6l-0.4,2.6l-0.9,3.1l-2.9,0.1l-1.1-3.1
		l-0.4-2.5l0.1-0.6l-3.8-0.1l-0.1,0.6l-0.6,2.5l-1.4,3l-2.9-0.4l-0.6-3.2l-0.1-2.6l0.1-0.6l-3.8-0.6l-0.1,0.6l-0.9,2.4l-1.7,2.8
		l-2.9-0.7l-0.2-3.2l0.2-2.6l0.1-0.6l-3.6-1.1l-0.3,0.5l-1.3,2.2l-2.1,2.6l-2.8-1.1l0.2-3.3l0.6-2.5l0.3-0.5l-3.4-1.6l-0.3,0.5
		l-1.5,2l-2.4,2.2l-2.6-1.4l0.7-3.2l0.9-2.4l0.3-0.5l-3.2-2.1l-0.3,0.4l-1.8,1.9l-2.7,1.9L138,81l1.1-3.1l1.3-2.3l0.3-0.4l-2.9-2.4
		l-0.4,0.4l-2,1.6l-2.9,1.6l-2.1-2l1.4-3l1.5-2.1l0.4-0.4l-2.5-2.9l-0.4,0.4l-2.2,1.4l-3,1.1l-1.9-2.2l1.9-2.7l1.8-1.9l0.5-0.3
		l-2.1-3.1l-0.5,0.3l-2.4,1l-3.2,0.8l-1.5-2.5l2.2-2.5l2-1.6l0.5-0.3l-1.8-3.4l-0.5,0.3l-2.5,0.6l-3.3,0.4l-1.1-2.7l2.4-2.1l2.2-1.4
		l0.6-0.1l-1.4-3.5l-0.6,0.1l-2.6,0.4l-3.3-0.1l-0.8-2.9l2.8-1.8l2.4-1l0.6-0.1l-0.8-3.7l-0.5,0.1l-2.6,0.1l-3.2-0.5l-0.4-2.9l3-1.5
		l2.5-0.6l0.5-0.1l-0.4-3.9l-0.6,0.1l-2.6-0.4l-3.1-0.9l-0.1-2.9l3.1-1.1l2.5-0.4l0.6,0.1l0.1-3.8l-0.6-0.1l-2.5-0.6l-3-1.4l0.4-2.9
		l3.2-0.6l2.6-0.1l0.6,0.1l0.6-3.8l-0.6-0.1l-2.4-1l-2.8-1.7l0.7-2.9l3.2-0.2l2.6,0.2l0.6,0.1l1.1-3.6l-0.5-0.3l-1.8-1.3l-2.6-2.1
		l1.1-2.8l3.3,0.2l2.5,0.6l0.5,0.3l1.6-3.4l-0.5-0.3l-2-1.5l-2.2-2.4l1.4-2.6l3.2,0.7l2.4,0.9l0.5,0.3l2.1-3.2l-0.4-0.3l-1.8-1.7
		l-1.9-2.7l1.7-2.4l3.1,1.1l2.3,1.3l0.4,0.3l2.4-2.9l-0.4-0.4l-1.6-2l-1.6-2.9l2-2.1l3,1.4l2.1,1.5l0.4,0.4l2.9-2.5l-0.4-0.4
		l-1.4-2.2l-1.1-3l2.2-1.9l2.7,1.9l1.9,1.8l0.3,0.5l3.1-2.1l-0.3-0.5l-1-2.4l-0.8-3.2l2.5-1.5l2.5,2.2l1.6,2l0.3,0.5l3.4-1.8
		l-0.3-0.5l-0.6-2.5l-0.4-3.3l2.7-1.1l2.1,2.4l1.4,2.2l0.1,0.6l3.5-1.4l-0.2-0.5l-0.4-2.6l0.1-3.3l2.9-0.8l1.8,2.8l1,2.4l0.1,0.6
		l3.7-0.8l-0.1-0.5l-0.1-2.6l0.5-3.2l2.9-0.4l1.5,3l0.6,2.5l0.1,0.5l3.9-0.4l-0.1-0.6l0.4-2.6l0.9-3.1l2.9-0.1l1.1,3.1l0.4,2.5
		l-0.1,0.6l3.8,0.1l0.1-0.6l0.6-2.5l1.4-3l2.9,0.4l0.6,3.2l0.1,2.6l-0.1,0.6l3.8,0.6l0.1-0.6l1-2.4l1.7-2.8l2.9,0.7l0.2,3.2
		l-0.2,2.6l-0.1,0.5l3.6,1.1l0.3-0.5l1.3-2.2l2.1-2.6l2.8,1.1l-0.2,3.3l-0.6,2.5l-0.3,0.5l3.4,1.6l0.3-0.5l1.5-2l2.4-2.2l2.6,1.4
		l-0.7,3.2l-0.9,2.4l-0.3,0.5l3.2,2.1l0.3-0.4l1.8-1.9l2.7-1.9l2.4,1.7l-1.1,3.1l-1.3,2.3l-0.3,0.4l2.9,2.4l0.4-0.4l2-1.6l2.9-1.6
		l2.1,2l-1.4,3l-1.5,2.1l-0.4,0.4l2.5,2.9l0.4-0.4l2.2-1.4l3-1.1l1.9,2.2l-1.9,2.7l-1.8,1.9l-0.9,0.6l2.1,3.1l0.5-0.3l2.4-1l3.2-0.8
		l1.5,2.5l-2.2,2.5l-2,1.6l-0.5,0.3l1.8,3.4l0.5-0.3l2.5-0.6l3.3-0.4l1.1,2.7L254.8-8l-2.2,1.4L252-6.5l1.4,3.5l0.6-0.1l2.6-0.4
		l3.3,0.1l0.8,2.9l-2.8,1.8l-2.4,0.9l-0.6,0.1l0.8,3.7l0.5-0.1l2.6-0.1l3.2,0.5l0.4,2.9l-3,1.4l-2.5,0.6l-0.5,0.1l0.4,3.9l0.6-0.1
		l2.6,0.4l3.1,0.9l0.1,2.9l-3.1,1.1l-2.5,0.4l-0.6-0.1l-0.1,3.8l0.6,0.1l2.5,0.6l3,1.4l-0.4,2.9l-3.2,0.6l-2.6,0.1l-0.6-0.1
		L255.6,33.9z"/>
</g>
<g transform="translate(176.5, 173.5)">
	<path id="gear-4" fill="#50D741" stroke="#FFFFFF" stroke-width="2" stroke-linejoin="round" stroke-miterlimit="10" d="
		M177.8,26.5l2.4,0.3l0.6,0.1l2.9,2l-0.6,2.4l-3.4,0.4l-0.6-0.1l-2.3-0.9l-1.9,3.4l1.9,1.5l0.5,0.5l1.4,3.1l-1.6,1.7l-3.1-1.4
		l-0.5-0.4l-1.5-2l-3.3,2l1.1,2.2l0.1,0.6l-0.3,3.4l-2.3,0.6l-2.1-2.7l-0.3-0.6l-0.4-2.4l-3.9,0.1l-0.3,2.4l-0.1,0.6l-2,2.9
		l-2.4-0.6l-0.4-3.4l0.1-0.6l0.9-2.3l-3.4-1.9l-1.5,1.9l-0.5,0.5l-3.1,1.4l-1.7-1.6l1.4-3.1l0.4-0.5l2-1.5l-2-3.3l-2.2,1.1l-0.6,0.1
		l-3.4-0.3l-0.6-2.3l2.7-2.1l0.6-0.3l2.4-0.4l-0.1-3.9l-2.4-0.3l-0.8-0.2l-2.9-2l0.6-2.4l3.4-0.4l0.6,0.1l2.3,0.9l1.9-3.4l-1.9-1.5
		l-0.5-0.5l-1.4-3.1l1.6-1.7l3.1,1.4l0.5,0.4l1.5,2l3.3-2l-1.1-2.2l-0.1-0.6l0.3-3.4l2.3-0.6l2.1,2.7l0.3,0.6l0.4,2.4l3.9-0.1
		l0.3-2.4l0.1-0.6l2-2.9l2.4,0.6l0.4,3.4L168.8,8l-0.9,2.3l3.4,1.9l1.5-1.9l0.5-0.5l3.1-1.4l1.7,1.6l-1.4,3.1l-0.4,0.5l-2,1.5l2,3.3
		l2.2-1.1l0.6-0.1l3.4,0.3l0.6,2.3l-2.7,2.1l-0.6,0.3l-2.4,0.4L177.8,26.5z"/>
	
		<circle fill="#50D741" stroke="#FFFFFF" stroke-width="2" stroke-linejoin="round" stroke-miterlimit="10" cx="162.3" cy="24.9" r="9.8"/>
</g>
<g transform="translate(-9.5, 106)">
	<path id="gear-1" fill="#50D741" stroke="#FFFFFF" stroke-width="2" stroke-linejoin="round" stroke-miterlimit="10" d="M214-25.8
		l-3.3,0.6l-1.3,5.4l0.1,2.7l0.6,2.1l-5.4,1.9l-0.9-2l-1.8-2.1l-4.5-3.3l-2.9,1.8l0.6,5.6l1.1,2.6l1.4,1.9l-4.4,3.7l-1.6-1.6
		L189.6-8l-5.3-1.6L182.1-7l2.6,5l1.9,2l1.9,1.3l-2.9,5l-2-0.9l-2.7-0.6l-5.6,0.3l-1.1,3.2l4.1,3.8l2.4,1.3l2.1,0.6l-0.9,5.6
		l-2.2-0.2l-2.7,0.3l-5.1,2.1v3.4l5.1,2.2l2.7,0.4l2.2-0.2l0.9,5.6l-2.1,0.6l-2.4,1.3l-4.1,3.8l1.1,3.1l5.6,0.3l2.7-0.6l2-0.9l2.9,5
		l-1.9,1.3l-1.9,2l-2.5,5l2.1,2.6l5.3-1.6l2.3-1.5l1.6-1.6l4.4,3.7l-1.4,1.9l-1.1,2.6l-0.6,5.6l2.9,1.6l4.5-3.3l1.8-2.1l0.9-2
		l5.4,1.9l-0.6,2.1l-0.1,2.7l1.3,5.4l3.3,0.6l3.1-4.6l0.9-2.6l0.2-2.2h5.7l0.2,2.2L225,68l3.1,4.6l3.3-0.6l1.3-5.4l-0.1-2.7
		l-0.6-2.1l5.4-1.9l0.9,2l1.8,2.1l4.5,3.3l2.9-1.6l-0.6-5.6l-1.1-2.6l-1.4-1.9l4.4-3.7l1.6,1.6l2.3,1.5l5.4,1.6l2.1-2.6l-2.6-5
		l-1.9-2l-1.9-1.3l2.9-5l2,0.9l2.7,0.6l5.6-0.3l1.1-3.1l-4.1-3.8l-2.4-1.3l-2.1-0.6l0.9-5.6l2.2,0.2l2.7-0.4l5.1-2.2v-3.5l-5.1-2.1
		l-2.7-0.4l-2.2,0.2l-0.9-5.6l2.1-0.6l2.4-1.3L268,8l-1.1-3.2l-5.6-0.3l-2.7,0.6l-2,0.9l-2.9-4.9l1.9-1.3l1.9-2l2.6-5l-2.1-2.6
		l-5.4,1.6l-2.3,1.5l-1.6,1.6l-4.4-3.7l1.3-1.7l1.1-2.6l0.6-5.6l-2.9-1.8l-4.5,3.3l-1.8,2.1l-0.9,2l-5.4-1.9l0.6-2.1l0.1-2.7
		l-1.3-5.4l-3.3-0.6l-3.1,4.6l-0.9,2.6l-0.2,2.2h-5.7l-0.2-2.2l-0.9-2.6L214-25.8L214-25.8z M217.6-9.6v20.3
		c-4.6,1.1-8.1,4.7-9.4,9.4H188C189.7,4.4,202-8,217.6-9.6z M224.4-9.6c15.6,1.6,28,13.9,29.5,29.5h-20.3c-1.1-4.5-4.7-8.1-9.2-9.2
		V-9.6L224.4-9.6z M220.9,16.9c3.5,0,6.4,2.9,6.4,6.4s-2.9,6.4-6.4,6.4s-6.4-2.9-6.4-6.4S217.4,16.9,220.9,16.9z M188,26.7h20.3
		c1.1,4.5,4.7,8.1,9.2,9.2v20.2C202,54.6,189.7,42.2,188,26.7z M233.6,26.7h20.3c-1.6,15.6-13.9,28-29.5,29.5V35.9
		C228.9,34.7,232.4,31.2,233.6,26.7z"/>
</g>
<g transform="translate(-9.5, 106)">
	<path id="gear-6" fill="#50D741" stroke="#FFFFFF" stroke-width="2" stroke-linejoin="round" stroke-miterlimit="10" d="
		M301.6,138.3l-3.3,0.6l-1.3,5.4l0.1,2.7l0.6,2.1l-5.4,1.9l-0.9-2l-1.8-2.1l-4.5-3.3l-2.9,1.8l0.6,5.6l1.1,2.6l1.4,1.9l-4.4,3.7
		l-1.6-1.6l-2.3-1.5l-5.3-1.6l-2.1,2.6l2.6,5l1.9,2l1.9,1.3l-2.9,5l-2-0.9l-2.7-0.6l-5.6,0.3l-1.1,3.2l4.1,3.8l2.4,1.3l2.1,0.6
		l-0.9,5.6l-2.2-0.2l-2.7,0.4l-5.1,2.1v3.4l5.1,2.2l2.7,0.4l2.2-0.2l0.9,5.6l-2.1,0.6l-2.4,1.3l-4.1,3.8l1.1,3.1l5.6,0.3l2.7-0.6
		l2-0.9l2.9,5l-1.9,1.3l-1.9,2l-2.6,5l2.1,2.6l5.3-1.6l2.3-1.5l1.6-1.6l4.4,3.7l-1.4,1.9l-1.1,2.6l-0.6,5.6l2.9,1.6l4.5-3.3l1.8-2.1
		l0.9-2l5.4,1.9l-0.6,2.1l-0.1,2.7l1.3,5.4l3.3,0.6l3.1-4.6l0.9-2.6l0.2-2.2h5.7l0.2,2.2l0.9,2.6l3.1,4.6l3.3-0.6l1.3-5.4l-0.1-2.7
		l-0.6-2.1l5.4-1.9l0.9,2l1.8,2.1l4.5,3.3l2.9-1.6l-0.6-5.6l-1.1-2.6l-1.4-1.9l4.4-3.7l1.6,1.6l2.3,1.5l5.4,1.6l2.1-2.6l-2.6-5
		l-1.9-2l-1.9-1.3l2.9-5l2,0.9l2.7,0.6l5.6-0.3l1.1-3.1l-4.1-3.8l-2.4-1.3l-2.1-0.6l0.9-5.6l2.2,0.2l2.7-0.4l5.1-2.2V186l-5.1-2.1
		l-2.7-0.4l-2.2,0.2L347,178l2.1-0.6l2.4-1.3l4.1-3.8l-1.1-3.2l-5.6-0.3l-2.7,0.6l-2.1,0.8l-2.9-5l1.9-1.3l1.9-2l2.6-5l-2.1-2.6
		l-5.4,1.6l-2.3,1.5l-1.6,1.6l-4.4-3.7l1.4-1.9l1.1-2.6l0.6-5.6l-2.9-1.8l-4.5,3.3l-1.8,2.1l-0.9,2l-5.4-1.9l0.6-2.1l0.1-2.7
		l-1.3-5.4l-3.3-0.6l-3.1,4.6l-0.9,2.6l-0.2,2.2h-5.7l-0.2-2.2l-0.9-2.6L301.6,138.3L301.6,138.3z M312.1,154.5
		c15.6,1.6,28,13.9,29.5,29.5h-20.3c-1.1-4.5-4.7-8.1-9.2-9.2V154.5L312.1,154.5z M308.6,181.1c3.5,0,6.4,2.9,6.4,6.4
		s-2.9,6.4-6.4,6.4s-6.4-2.9-6.4-6.4C302.2,183.8,305.1,181.1,308.6,181.1z M275.6,190.8h20.3c1.1,4.5,4.7,8.1,9.2,9.2v20.3
		C289.6,218.7,277.3,206.3,275.6,190.8z"/>
</g>
<g transform="translate(132, 84)">
	<path id="gear-2" fill="none" stroke="#FFFFFF" stroke-width="2" stroke-linejoin="round" stroke-miterlimit="10" d="M239.5,28.2
		l1.4,0.2l3.4,1.4l4.4,3.3l-0.9,3.4l-5.4,0.9l-3.6-0.3l-1.3-0.4l-1.9,5.1l1.3,0.6l2.9,2.4l3.4,4.2l-1.6,3.1l-5.5-0.6l-3.5-1.3
		l-1.1-0.8l-3.3,4.4l1.1,0.9l2.1,2.9l2.1,5.1l-2.5,2.6l-5.1-1.9l-3-2l-0.9-1l-4.2,3.4l0.9,1.1l1.4,3.4l0.8,5.4l-3.1,1.9l-4.4-3.2
		l-2.4-2.8l-0.6-1.3l-5.1,2.1l0.5,1.4l0.4,3.6l-0.6,5.4l-3.4,0.9l-3.4-4.2l-1.6-3.3l-0.3-1.4l-5.4,0.9l0.2,1.4l-0.5,3.7l-2.1,5.1
		h-3.5l-2.1-5.1l-0.7-3.7l0.1-1.4l-5.4-0.6l-0.2,1.4l-1.4,3.4l-3.3,4.4l-3.4-0.9l-0.9-5.4l0.3-3.6l0.4-1.3l-5.1-1.9l-0.6,1.3
		l-2.4,2.9l-4.2,3.4l-3.1-1.6l0.6-5.5l1.3-3.5l0.8-1.1l-4.4-3.3l-0.9,1.1l-3.2,2.3l-5.1,2.1l-2.6-2.5l1.9-5.1l2-3l1-0.9l-3.4-4.2
		l-1.1,0.9l-3.4,1.4l-5.4,0.8l-1.9-3.1l3.2-4.4l2.8-2.4l1.3-0.6l-2.1-5.1l-1.4,0.5l-3.6,0.4l-5.5-0.7l-0.9-3.4l4.4-3.4l3.3-1.6
		l1.4-0.3l-0.9-5.4l-1.4,0.2l-3.7-0.5l-5.1-2.1v-3.5l5.1-2.1l3.7-0.7l1.4,0.1l0.6-5.4l-1.4-0.2l-3.4-1.4l-4.4-3.3l0.9-3.4l5.4-0.9
		l3.6,0.3l1.3,0.4l1.9-5.1l-1.3-0.6l-2.9-2.4l-3.4-4.4l1.6-3.1l5.5,0.6l3.5,1.3l1.1,0.8l3.3-4.4l-1.1-0.9l-2.1-2.9l-2.1-5.1l2.5-2.6
		l5.1,1.9l3,2l0.9,1l4.2-3.4l-0.9-1.1l-1.4-3.4l-0.8-5.4l3.1-1.9l4.4,3.2l2.4,2.8l0.6,1.3l5.1-2.1l-0.5-1.4l-0.4-3.6l0.7-5.5
		l3.4-0.9l3.4,4.2l1.6,3.3l0.3,1.4l5.4-0.9l-0.2-1.4l0.5-3.7l1.9-5.1h3.5l2.1,5.1l0.7,3.7l-0.1,1.4l5.4,0.6l0.2-1.4l1.4-3.4l3.3-4.4
		l3.4,0.9l0.9,5.4l-0.3,3.6l-0.4,1.3l5.1,1.9l0.6-1.3l2.4-2.9l4.2-3.4l3.1,1.6l-0.6,5.5l-1.3,3.5l-0.8,1.1l4.4,3.3l0.9-1.1l2.9-2.1
		l5.1-2.1l2.6,2.5l-1.9,5.1l-2,3l-1,0.9l3.4,4.2l1.1-0.9l3.4-1.4l5.4-0.8l1.9,3.1l-3.2,4.4l-2.8,2.4L234.6-5l2.1,5.1l1.4-0.5
		l3.6-0.4l5.4,0.6l0.9,3.4l-4.2,3.4l-3.3,1.6l-1.4,0.3l0.9,5.4l1.4-0.2l3.7,0.5l5.1,2.1v3.5l-5.1,2.1l-3.7,0.7l-1.4-0.1L239.5,28.2z
		"/>
	<circle fill="none" stroke="#FFFFFF" stroke-width="2" stroke-linejoin="round" cx="185.7" cy="19.4" r="4.9"/>
</g>
<g transform="translate(132, 84)">
	<path id="gear-5" fill="#50D741" stroke="#FFFFFF" stroke-width="2" stroke-linejoin="round" stroke-miterlimit="10" d="
		M112.3,211.3l0.9,0.2l3.6,1.5l4.2,2.6l-1.1,4.3l-4.9,0.3l-3.9-0.4l-0.9-0.2l-1.8,5.4l0.8,0.4l3.3,1.9l3.9,3.1l-1.6,4.1l-4.9-0.4
		l-3.7-0.9l-0.8-0.4l-2.5,5.1l0.8,0.4l3.1,2.2l3.3,3.5l-2.1,3.9l-4.8-1l-3.6-1.4l-0.8-0.5l-3.1,4.8l0.6,0.4l2.9,2.6l2.9,4.1
		l-2.6,3.6l-4.6-1.6l-3.4-1.9l-0.6-0.4l-3.6,4.4l0.6,0.6l2.4,3l2.4,4.4l-3.1,3.1l-4.4-2.1l-3.2-2.3l-0.6-0.6l-4.3,3.8l0.6,0.6l2,3.4
		l1.8,4.5L78,282l-4.1-2.9l-2.9-2.6l-0.4-0.7l-4.7,3.2l0.4,0.7l1.6,3.5l1.3,4.9l-3.7,2.2l-3.7-3.4l-2.4-3l-0.4-0.7l-5.1,2.7l0.4,0.7
		l1,3.8l0.6,5l-4,1.7l-3.1-3.6l-2-3.4l-0.2-0.9l-5.3,2l0.2,0.9l0.5,3.9l-0.2,4.9l-4.2,1.2l-2.7-4.1l-1.6-3.5l-0.2-0.9l-5.6,1.1
		l0.1,0.8l0.1,3.9l-0.7,4.8l-4.4,0.6l-2.2-4.5l-1-3.8l-0.1-0.8l-5.7,0.5l0.1,0.9l-0.5,3.8l-1.4,4.7l-4.4,0.1l-1.6-4.6l-0.6-3.8
		l0.1-0.9l-5.6-0.2l-0.1,0.9l-0.9,3.7l-2,4.5l-4.4-0.5l-0.9-4.9l-0.1-3.8l0.1-0.9l-5.6-0.9l-0.2,0.9l-1.4,3.5l-2.6,4.2l-4.3-1.1
		l-0.3-4.9l0.4-3.9l0.2-0.9l-5.4-1.8l-0.4,0.8l-1.9,3.3l-3.1,3.9l-4.1-1.4l0.4-4.9l0.9-3.7l0.4-0.8l-5.1-2.5l-0.4,0.8l-2.2,3.1
		l-3.5,3.3l-3.9-2.1l1-4.8l1.4-3.6l0.5-0.8l-4.8-3.1l-0.4,0.6l-2.6,2.9l-4.1,2.9l-3.6-2.6l1.6-4.6l1.9-3.4l0.4-0.6l-4.4-3.6
		l-0.6,0.6l-3,2.4l-4.4,2.5l-3.1-3.1l2.1-4.4l2.3-3.2l0.6-0.6l-3.8-4.3l-0.6,0.6l-3.4,2l-4.5,1.8l-2.8-3.4l2.9-4.1l2.6-2.9l0.7-0.4
		l-3.1-4.7l-0.7,0.4l-3.5,1.6l-4.9,1.3l-2.5-3.9l3.4-3.7l3-2.4l0.7-0.4l-2.6-5l-0.7,0.4l-3.8,1l-5,0.6l-1.7-4l3.6-3.1l3.4-2l0.9-0.2
		l-2-5.3l-0.9,0.2l-3.9,0.5l-4.9-0.2l-1.2-4.2l4.1-2.7l3.5-1.6l0.9-0.2l-1.1-5.6l-0.8,0.1l-3.9,0.1l-4.8-0.7l-0.6-4.4l4.5-2.2l3.8-1
		l0.8-0.1l-0.6-5.8l-0.9,0.1l-3.8-0.5l-4.7-1.4l-0.1-4.4l4.6-1.6l3.8-0.6l0.9,0.1l0.2-5.6l-0.9-0.1l-3.7-0.9l-4.5-2l0.5-4.4l4.9-0.9
		l3.8-0.1l0.9,0.1l0.9-5.6l-0.9-0.2l-3.6-1.5l-4.2-2.6l1.1-4.3l4.9-0.3l3.9,0.4l0.9,0.2l1.8-5.4l-0.8-0.4l-3.3-1.9l-3.9-3.1l1.6-4.1
		l4.9,0.4l3.7,0.9l0.8,0.4l2.5-5.1l-0.8-0.4l-3.1-2.3l-3.3-3.5l2.1-3.9l4.8,1l3.6,1.4l0.8,0.5l3.1-4.8l-0.6-0.4l-2.9-2.6l-2.9-4.1
		l2.6-3.6l4.6,1.6l3.4,1.9l0.6,0.4l3.6-4.4l-0.6-0.6l-2.4-3l-2.4-4.4l3.1-3.1l4.4,2.1l3.2,2.3l0.6,0.6l4.3-3.8l-0.6-0.6l-2-3.4
		l-1.8-4.5l3.3-2.8l4.1,2.9l2.9,2.6l0.4,0.7l4.7-3.2l-0.4-0.7l-1.6-3.5l-1.3-4.9l3.7-2.2l3.7,3.4l2.4,3l0.4,0.7l5.1-2.7l-0.4-0.7
		l-1-3.8l-0.6-5l4-1.7l3.1,3.6l2,3.4l0.3,0.9l5.3-2l-0.2-0.9l-0.5-3.9l0.2-4.9l4.2-1.2l2.7,4.1l1.6,3.5l0.2,0.9l5.6-1.1l-0.1-0.8
		l-0.1-3.9l0.7-4.8l4.4-0.6l2.2,4.5l1,3.8l0.1,0.8L1,83l-0.1-0.9l0.5-3.8l1.4-4.7l4.4-0.1l1.6,4.6l0.6,3.8l-0.1,0.9l5.6,0.2l0.1-0.9
		l0.9-3.7l2-4.5l4.4,0.5l0.9,4.9l0.1,3.8l-0.1,0.9l5.6,0.9l0.2-0.9l1.5-3.6l2.6-4.2l4.3,1.1l0.3,4.9L37.4,86l-0.2,0.9l5.4,1.8
		l0.4-0.8l1.9-3.3l3.1-3.9l4.1,1.6l-0.4,4.9l-0.9,3.7l-0.4,0.8l5.1,2.5l0.4-0.8l2.2-3.1l3.5-3.3l3.9,2.1l-1,4.8l-1.4,3.6l-0.5,0.8
		l4.8,3.1l0.4-0.6l2.6-2.9l4.1-2.9l3.6,2.6l-1.6,4.6l-1.9,3.4l-0.4,0.6l4.4,3.6l0.6-0.6l3-2.4l4.4-2.4l3.1,3.1l-2.1,4.4l-2.3,3.2
		l-0.6,0.6l3.8,4.3l0.6-0.6l3.4-2l4.5-1.8l2.8,3.4l-2.9,4.1l-2.6,2.9l-0.7,0.4l3.2,4.7l0.7-0.4l3.5-1.6l4.9-1.3l2.2,3.7l-3.4,3.7
		l-3,2.4l-0.7,0.4l2.7,5.1l0.7-0.4l3.8-1l5-0.6l1.7,4l-3.6,3.1l-3.4,2l-0.9,0.2l2,5.3l0.9-0.2l3.9-0.5l4.9,0.2l1.2,4.2l-4.1,2.7
		l-3.5,1.6l-0.9,0.2l1.1,5.6l0.8-0.1l3.9-0.1l4.8,0.7l0.6,4.4l-4.5,2.2l-3.8,1l-0.8,0.1l0.5,5.7l0.9-0.1l3.8,0.5l4.7,1.4l0.1,4.4
		l-4.6,1.6l-3.8,0.6l-0.9-0.1l-0.2,5.6l0.9,0.1l3.7,0.9l4.5,2l-0.5,4.4l-4.9,0.9l-3.8,0.1l-0.9-0.1L112.3,211.3z"/>
</g>
<g transform="translate(132, 84)">
	<circle fill="none" stroke="#FFFFFF" stroke-width="2" stroke-linejoin="round" cx="7.8" cy="188.9" r="7.3"/>
</g>
</svg>
