
<svg version="1.1" id="gears" onload="init(evt)" xmlns:svg="http://www.w3.org/2000/svg"
	 xmlns="http://www.w3.org/2000/svg" xmlns:xlink="http://www.w3.org/1999/xlink" x="0px" y="0px" viewBox="0 0 425.2 425.2"
	 enable-background="new 0 0 425.2 425.2" xml:space="preserve">
<script  type="text/ecmascript">
	<![CDATA[
  	var svgNS = "http://www.w3.org/2000/svg";

	function init(evt)
	{
		if ( window.svgDocument == null )
		{
			svgDocument = evt.target.ownerDocument;
		}
		addRotateTransform('gear-1', 12, 1);
		addRotateTransform('gear-2', 16, -1);
		addRotateTransform('gear-3', 16, -1);
		addRotateTransform('gear-4', 4, 1);
		addRotateTransform('gear-5', 32, -1);
		addRotateTransform('gear-6', 12, 1);
	}

	function addRotateTransform(target_id, speed, direction)
	{
		var element_to_rotate = svgDocument.getElementById(target_id);
		var my_transform = svgDocument.createElementNS(svgNS, "animateTransform");

		var bb = element_to_rotate.getBBox();
		var cx = bb.x + bb.width/2;
		var cy = bb.y + bb.height/2;

		my_transform.setAttributeNS(null, "attributeName", "transform");
		my_transform.setAttributeNS(null, "attributeType", "XML");
		my_transform.setAttributeNS(null, "type", "rotate");
		my_transform.setAttributeNS(null, "dur", speed + "s");
		my_transform.setAttributeNS(null, "repeatCount", "indefinite");
		my_transform.setAttributeNS(null, "from", "0 "+cx+" "+cy);
		my_transform.setAttributeNS(null, "to", 360*direction+" "+cx+" "+cy);

		element_to_rotate.appendChild(my_transform);
		my_transform.beginElement();
	}	
		
		
		]]>
</script>
<g transform="translate(132, 84)">
	<path id="gear-3" fill="#50D741" stroke="#FFFFFF" stroke-width="1" stroke-linejoin="round" stroke-miterlimit="10" d="
		M-101.9,30.1l-0.6,0.1l-2.6-0.1l-3.2-0.6l-0.4-2.9l3-1.4l2.5-0.6l0.6-0.1l-0.1-3.8l-0.6,0.1l-2.5-0.4l-3.1-1.1l0.1-2.9l3.1-0.9
		l2.6-0.4l0.6,0.1l0.4-3.9l-0.5-0.1l-2.5-0.6l-3-1.4l0.4-2.9l3.2-0.5l2.6,0.1l0.5,0.1l0.8-3.7l-0.6-0.1l-2.4-0.9l-2.8-1.8l0.8-2.9
		l3.3-0.1l2.6,0.4l0.6,0.1l1.4-3.5l-0.6-0.1l-2.2-1.4l-2.7-2.3l1.1-2.7l3.3,0.4l2.5,0.6l0.5,0.3l1.8-3.4l-0.5-0.3l-2-1.6l-2.2-2.5
		l1.5-2.5l3.2,0.8l2.4,1l0.5,0.3L-89-23l-0.9-0.6l-1.8-1.9l-1.9-2.7l1.9-2.2l3,1.1l2.2,1.4l0.4,0.4l2.5-2.9l-0.4-0.4l-1.5-2.1
		l-1.4-3l2.1-2l2.9,1.6l2,1.6l0.4,0.4l2.9-2.4l-0.3-0.4l-1.3-2.3l-1.1-3.1l2.4-1.7l2.7,1.9l1.8,1.9l0.3,0.4l3.2-2.1l-0.3-0.5
		l-0.9-2.4l-0.7-3.2l2.6-1.4l2.4,2.2l1.5,2l0.3,0.5l3.4-1.6l-0.3-0.5l-0.6-2.5l-0.2-3.3l2.8-1.1l2.1,2.6l1.3,2.2l0.3,0.5l3.6-1.1
		l-0.1-0.5l-0.2-2.6l0.2-3.2l2.9-0.7l1.7,2.8l1,2.4l0.1,0.6l3.8-0.6l-0.1-0.6l0.1-2.6l0.6-3.2l2.9-0.4l1.4,3l0.6,2.5l0.1,0.6
		l3.8-0.1l-0.1-0.6l0.4-2.5l1.1-3.1l2.9,0.1l0.9,3.1l0.4,2.6l-0.1,0.6l3.9,0.4l0.1-0.5l0.6-2.5l1.5-3l2.9,0.4l0.5,3.2l-0.1,2.6
		L-18-51l3.7,0.8l0.1-0.6l1-2.4l1.8-2.8l2.9,0.8l0.1,3.3l-0.4,2.6L-9-48.8l3.5,1.4l0.1-0.6l1.4-2.2l2.1-2.4l2.7,1.1l-0.4,3.3
		l-0.6,2.5l-0.3,0.5l3.4,1.8l0.3-0.5l1.6-2l2.5-2.2l2.5,1.5L9-43.4L8-41l-0.3,0.5l3.1,2.1l0.3-0.5l1.9-1.8l2.7-1.9l2.2,1.9l-1.1,3
		l-1.4,2.2L15-35.1l2.9,2.5l0.4-0.4l2.1-1.5l3-1.4l2,2.1l-1.6,2.9l-1.6,2l-0.4,0.4l2.4,2.9l0.4-0.3l2.3-1.3l3.1-1.1l1.7,2.4
		l-1.9,2.7L28-21.5l-0.4,0.3l2.1,3.2l0.5-0.3l2.4-0.9l3.2-0.7l1.4,2.6L35-14.9l-2,1.5l-0.5,0.3l1.6,3.4l0.5-0.3l2.5-0.6l3.3-0.2
		L41.5-8l-2.6,2.1l-1.8,1.3l-0.5,0.3l1.1,3.6l0.6-0.1L40.9-1l3.2,0.2l0.7,2.9L42,3.8l-2.4,1L39,4.9l0.6,3.8l0.6-0.1l2.6,0.1L46,9.3
		l0.4,2.9l-3,1.4l-2.5,0.6l-0.6,0.1l0.1,3.8L41,18l2.5,0.4l3.1,1.1l-0.1,2.9l-3.1,0.9l-2.6,0.4l-0.6-0.1l-0.4,3.9l0.5,0.1l2.5,0.6
		l3,1.5l-0.4,2.9l-3.2,0.5L39.6,33l-0.5-0.1l-0.8,3.7l0.6,0.1l2.4,1l2.8,1.8l-0.8,2.9L40,42.5l-2.6-0.4L36.8,42l-1.4,3.5l0.6,0.1
		l2.2,1.4l2.4,2.1l-1.1,2.7l-3.3-0.4l-2.5-0.6l-0.5-0.3l-1.8,3.4l0.5,0.3l2,1.6l2.2,2.5l-1.5,2.5L31.4,60L29,59l-0.5-0.3l-2.1,3.1
		l0.5,0.3l1.8,1.9l1.9,2.7l-1.9,2.2l-3-1.1l-2.2-1.4L23.1,66l-2.5,2.9l0.4,0.4l1.5,2.1l1.4,3l-2.1,2l-2.9-1.6l-2-1.6l-0.4-0.4
		l-2.9,2.4l0.3,0.4l1.3,2.3l1.1,3.1l-2.1,2l-2.7-1.9l-1.8-1.9l-0.3-0.4l-3.2,2.1l0.3,0.5l0.9,2.4L8.1,87l-2.6,1.4l-2.4-2.2l-1.5-2
		l-0.3-0.5l-3.4,1.6l0.3,0.5l0.6,2.5l0.2,3.3l-2.8,1.1l-2.1-2.6l-1.3-2.2l-0.3-0.5l-3.6,1.1l0.1,0.6l0.2,2.6l-0.2,3.2l-2.9,0.7
		l-1.7-2.8l-0.9-2.4l-0.1-0.6l-3.8,0.6l0.1,0.6l-0.1,2.6l-0.6,3.2l-2.9,0.4l-1.4-3l-0.6-2.5l-0.1-0.6l-3.8,0.1l0.1,0.6l-0.4,2.5
		l-1.1,3.1l-2.9-0.1l-0.9-3.1l-0.4-2.6l0.1-0.6l-3.9-0.4l-0.1,0.5l-0.6,2.5l-1.5,3l-2.9-0.4l-0.5-3.2l0.1-2.6l0.1-0.5l-3.7-0.8
		l-0.1,0.6l-1,2.4l-1.8,2.8l-2.9-0.8l-0.1-3.3l0.4-2.6l0.1-0.6l-3.5-1.4l-0.1,0.6l-1.4,2.2l-2.1,2.4l-2.7-1.1l0.4-3.3l0.6-2.5
		l0.3-0.5l-3.4-1.8l-0.3,0.5l-1.6,2l-2.5,2.2l-2.5-1.5l0.8-3.2l1-2.4l0.3-0.5l-3.1-2.1l-0.3,0.5l-1.9,1.8l-2.7,1.9l-2.2-1.9l1.1-3
		l1.4-2.2l0.4-0.4l-2.9-2.5l-0.4,0.4l-2.1,1.5l-3,1.4l-2-2.1l1.6-2.9l1.6-2l0.4-0.4l-2.4-2.9l-0.4,0.3l-2.4,1.4l-3.1,1.1l-1.7-2.4
		l1.9-2.7l1.9-1.8l0.4-0.3l-2.1-3.2l-0.5,0.3l-2.4,0.9l-3.2,0.7l-1.4-2.6l2.2-2.4l2-1.5l0.5-0.3l-1.6-3.4l-0.5,0.3l-2.5,0.6
		l-3.3,0.2l-1.1-2.8l2.6-2.1l2.2-1.3l0.5-0.3l-1.1-3.6l-0.6,0.1l-2.6,0.2l-3.2-0.2l-0.7-2.9l2.8-1.7l2.4-1l0.6-0.1L-101.9,30.1z"/>
</g>
<g transform="translate(176.5, 173.5)">
	<path id="gear-4" fill="#50D741" stroke="#FFFFFF" stroke-width="1" stroke-linejoin="round" stroke-miterlimit="10" d="
		M-112.1,22.6l-2.4-0.4l-0.6-0.3l-2.7-2.1l0.6-2.3l3.4-0.3l0.6,0.1l2.2,1.1l2-3.3l-2-1.5l-0.4-0.5l-1.4-3.1l1.7-1.6l3.1,1.4l0.5,0.5
		l1.5,1.9l3.4-1.9l-0.9-2.3l-0.2-0.7l0.4-3.4l2.4-0.6l2,2.9l0.1,0.6l0.3,2.4l3.9,0.1l0.4-2.4l0.3-0.6l2.1-2.7l2.3,0.6l0.3,3.4
		l-0.1,0.6l-1.1,2.2l3.3,2l1.5-2l0.5-0.4l3.1-1.4l1.6,1.7l-1.4,3.1l-0.5,0.5l-1.9,1.5l1.9,3.4l2.3-0.9l0.6-0.1l3.4,0.4l0.6,2.4
		l-2.9,2l-0.8,0.2l-2.4,0.3l-0.1,3.9l2.4,0.4l0.6,0.3l2.7,2.1l-0.6,2.3l-3.4,0.3l-0.6-0.1l-2.2-1.1l-2,3.3l2,1.5l0.4,0.5l1.4,3.1
		l-1.7,1.6l-3.1-1.4l-0.5-0.5l-1.5-1.9l-3.4,1.9l0.9,2.3l0.1,0.6l-0.4,3.4l-2.4,0.6l-2-2.9l-0.1-0.6l-0.3-2.4l-3.9-0.1l-0.4,2.4
		l-0.3,0.6l-2.1,2.7l-2.3-0.6l-0.3-3.4l0.1-0.6l1.1-2.2l-3.3-2l-1.5,2l-0.5,0.4l-3.1,1.4l-1.6-1.7l1.4-3.1l0.5-0.5l1.9-1.5l-1.9-3.4
		l-2.3,0.9l-0.6,0.1l-3.4-0.4l-0.6-2.4l2.9-2l0.6-0.1l2.4-0.3L-112.1,22.6z"/>
	
		<circle fill="#50D741" stroke="#FFFFFF" stroke-width="1" stroke-linejoin="round" stroke-miterlimit="10" cx="-97" cy="24.9" r="9.8"/>
</g>
<g transform="translate(-9.5, 106)">
	<path id="gear-1" fill="#50D741" stroke="#FFFFFF" stroke-width="1" stroke-linejoin="round" stroke-miterlimit="10" d="
		M223.3-25.8l-2.9,4.6l-0.9,2.6l-0.2,2.2h-5.7l-0.2-2.2l-0.9-2.6l-3.1-4.6l-3.3,0.6l-1.3,5.4l0.1,2.7l0.6,2.1l-5.4,1.9l-0.9-2
		l-1.8-2.1l-4.5-3.3l-2.9,1.8l0.6,5.6l1.1,2.6l1.3,1.7l-4.4,3.7L187-6.7l-2.3-1.5l-5.4-1.6l-2.1,2.6l2.6,5l1.9,2l1.9,1.3L180.7,6
		l-2-0.9L176,4.5l-5.6,0.3L169.3,8l4,3.8l2.4,1.3l2.1,0.6l-0.9,5.6l-2.2-0.2l-2.7,0.4l-5.1,2.1v3.5l5.1,2.2l2.7,0.4l2.2-0.2l0.9,5.6
		l-2.1,0.6l-2.4,1.3l-4.1,3.8l1.1,3.1l5.6,0.3l2.7-0.6l2-0.9l2.9,5l-1.9,1.3l-1.9,2l-2.6,5l2.1,2.6l5.4-1.6l2.3-1.5l1.6-1.6l4.4,3.7
		l-1.4,1.9l-1.1,2.6l-0.6,5.6l2.9,1.6l4.5-3.3l1.8-2.1l0.9-2l5.4,1.9l-0.6,2.1l-0.1,2.7l1.3,5.4l3.3,0.6l3.1-4.6l0.7-2.5l0.2-2.2
		h5.7l0.2,2.2l0.9,2.6l3.1,4.6l3.3-0.6l1.3-5.4l-0.1-2.7l-0.6-2.1l5.4-1.9l0.9,2l1.8,2.1l4.5,3.3l2.9-1.6l-0.6-5.6l-1.1-2.6
		l-1.4-1.9l4.4-3.7l1.6,1.6l2.3,1.5l5.3,1.6l2.1-2.6l-2.5-5l-1.9-2l-1.9-1.3l2.9-5l2,0.9l2.7,0.6L262,42l1.1-3.1l-4.1-3.8l-2.4-1.3
		l-2.1-0.6l0.9-5.6l2.2,0.2l2.7-0.4l5.1-2.2v-3.4l-5.1-2.1l-2.7-0.3l-2.2,0.2l-0.9-5.6l2.1-0.6l2.4-1.3l4.1-3.8L262,5.1l-5.6-0.3
		l-2.7,0.6l-2,0.9l-2.9-5l1.9-1.3l1.9-2l2.6-5L253-9.6L247.7-8l-2.1,1.5L244-4.9l-4.4-3.7l1.4-1.9l1.1-2.6l0.6-5.6l-2.9-1.8
		l-4.5,3.3l-1.8,2.1l-0.9,2l-5.4-1.9l0.6-2.1l0.1-2.7l-1.3-5.4L223.3-25.8L223.3-25.8z M249.3,20.1h-20.2c-1.3-4.7-4.8-8.3-9.4-9.4
		V-9.6C235.3-8,247.6,4.4,249.3,20.1z M212.9-9.6v20.3c-4.5,1.1-8.1,4.7-9.2,9.2h-20.3C184.9,4.3,197.3-8,212.9-9.6L212.9-9.6z
		 M222.8,23.3c0,3.5-2.9,6.4-6.4,6.4s-6.4-2.9-6.4-6.4s2.9-6.4,6.4-6.4S222.8,19.8,222.8,23.3z M219.8,56.1V35.9
		c4.5-1.1,8.1-4.7,9.2-9.2h20.3C247.6,42.2,235.3,54.6,219.8,56.1z M212.9,35.9v20.3c-15.6-1.5-27.9-13.9-29.5-29.5h20.3
		C204.9,31.2,208.4,34.7,212.9,35.9z"/>
</g>
<g transform="translate(-9.5, 106)">
	<path id="gear-6" fill="#50D741" stroke="#FFFFFF" stroke-width="1" stroke-linejoin="round" stroke-miterlimit="10" d="
		M135.7,138.3l-2.9,4.4l-0.9,2.6l-0.2,2.2H126l-0.2-2.2l-0.9-2.6l-3.1-4.6l-3.3,0.6l-1.3,5.4l0.1,2.7l0.6,2.1l-5.4,1.9l-0.9-2
		l-1.8-2.1l-4.5-3.3l-2.9,1.8l0.6,5.6l1.1,2.6l1.4,1.9l-4.4,3.7l-1.6-1.6l-2.3-1.5l-5.4-1.6l-2.1,2.6l2.6,5l1.9,2l1.9,1.3l-2.9,5
		l-2.1-0.8l-2.7-0.6l-5.6,0.3l-1.1,3.2l4.1,3.8l2.4,1.3l2.1,0.6l-1,5.7l-2.2-0.2l-2.7,0.4l-5.1,2.1v3.4l5.1,2.2l2.7,0.4l2.2-0.2
		l0.9,5.6l-2.1,0.6l-2.4,1.3l-4.1,3.8l1.1,3.1l5.6,0.3l2.7-0.6l2-0.9l2.9,5l-1.9,1.3l-1.9,2l-2.6,5l2.1,2.6l5.4-1.6l2.3-1.5l1.6-1.6
		l4.4,3.7l-1.4,1.9l-1.1,2.6l-0.6,5.6l2.9,1.6l4.5-3.3l1.8-2.1l0.9-2l5.4,1.9l-0.6,2.1l-0.1,2.7l1.3,5.4l3.3,0.6l3.1-4.6l0.9-2.6
		l0.2-2.2h5.7l0.2,2.2l0.9,2.6l3.1,4.6l3.3-0.6l1.3-5.4l-0.1-2.7l-0.6-2.1l5.4-1.9l0.9,2l1.8,2.1l4.5,3.3l2.9-1.6l-0.6-5.6l-1.1-2.6
		l-1.4-1.9l4.4-3.7l1.6,1.6l2.3,1.5l5.3,1.6l2.1-2.6l-2.6-5l-1.9-2l-1.9-1.3l2.9-5l2,0.9l2.7,0.6l5.6-0.3l1.1-3.1l-4.1-3.8l-2.4-1.3
		l-2.1-0.6l0.9-5.6l2.2,0.2l2.7-0.4l5.1-2.2V186l-5.1-2.1l-2.7-0.4l-2.2,0.2l-0.9-5.6l2.1-0.6l2.4-1.3l4.1-3.8l-1.1-3.2l-5.6-0.3
		l-2.7,0.6l-2,0.9l-2.9-5l1.9-1.3l1.9-2l2.6-5l-2.1-2.6l-5.3,1.6l-2.3,1.5l-1.6,1.6l-4.4-3.7l1.4-1.9l1.1-2.6l0.6-5.6l-2.9-1.8
		l-4.5,3.3l-1.8,2.1l-0.9,2l-5.4-1.9l0.6-2.1l0.1-2.7l-1.3-5.4L135.7,138.3L135.7,138.3z M125.2,154.5v20.3
		c-4.5,1.1-8.1,4.7-9.2,9.2H95.7C97.2,168.4,109.6,156.1,125.2,154.5L125.2,154.5z M135.1,187.5c0,3.5-2.9,6.4-6.4,6.4
		s-6.4-2.9-6.4-6.4s2.9-6.4,6.4-6.4S135.1,183.8,135.1,187.5z M132.2,220.3V200c4.5-1.1,8.1-4.7,9.2-9.2h20.3
		C160,206.3,147.7,218.7,132.2,220.3z"/>
</g>
<g transform="translate(132, 84)">
	<path id="gear-2" fill="none" stroke="#FFFFFF" stroke-width="1" stroke-linejoin="round" stroke-miterlimit="10" d="M-85.7,22.5
		l-1.4,0.1l-3.7-0.7l-5.1-2.1v-3.5l5.1-2.1l3.7-0.5l1.4,0.2l0.9-5.4l-1.4-0.3l-3.3-1.6l-4.2-3.4l0.9-3.4l5.4-0.6l3.6,0.4l1.4,0.5
		l2.1-5.1l-1.1-0.5l-2.8-2.4l-3.2-4.4l1.9-3.1l5.4,0.8l3.4,1.4l1.1,0.9l3.4-4.2l-1-0.9l-2-3l-1.9-5.1l2.6-2.5l5.1,2.1l2.9,2.1
		l0.9,1.1l4.4-3.3l-0.8-1.1l-1.3-3.5l-0.6-5.5l3.1-1.6l4.2,3.4l2.4,2.9l0.6,1.3l5.1-1.9l-0.4-1.3l-0.3-3.6l0.9-5.4l3.4-0.9l3.3,4.4
		l1.4,3.4L-40-34l5.4-0.6l-0.1-1.4l0.7-3.7l2.1-5.1h3.5l1.9,5.1L-26-36l-0.2,1.4l5.4,0.9l0.3-1.4l1.6-3.3l3.4-4.2l3.4,0.9l0.7,5.5
		l-0.4,3.6l-0.5,1.4l5.1,2.1l0.6-1.3l2.4-2.8l4.4-3.2l3.1,1.9l-0.8,5.4l-1.4,3.4l-0.9,1.1l4.2,3.4l0.9-1l3-2l5.1-1.9l2.5,2.6
		l-2.1,5.1l-2.1,2.9l-1.1,0.9l3.3,4.4L15-11l3.5-1.3l5.5-0.6l1.6,3.1l-3.4,4.4L19.3-3L18-2.4l1.9,5.1l1.3-0.4L24.8,2l5.4,0.9
		l0.9,3.4l-4.4,3.3L23.3,11l-1.4,0.2l0.6,5.4l1.4-0.1l3.7,0.7l5.1,2.1v3.5l-5.1,2.1l-3.7,0.5l-1.4-0.2l-0.9,5.4l1.4,0.3l3.3,1.6
		l4.4,3.4l-0.9,3.4L24.3,40l-3.6-0.4l-1.4-0.5l-2.1,5.1l1.3,0.6l2.8,2.4l3.2,4.4l-1.9,3.1l-5.4-0.8l-3.4-1.4l-1.1-0.9l-3.4,4.2
		l1,0.9l2,3l1.9,5.1l-2.6,2.5l-5.1-2.1l-3.2-2.3l-0.9-1.1L-2,65.1l0.8,1.1l1.3,3.5l0.6,5.5l-3.1,1.6l-4.2-3.4L-9,70.5l-0.6-1.3
		l-5.1,1.9l0.4,1.3L-14,76l-0.9,5.4l-3.4,0.9l-3.3-4.4l-1.4-3.4l-0.2-1.4l-5.4,0.6l0.1,1.4l-0.7,3.7l-2.1,5.1h-3.5l-2.1-5.1
		l-0.5-3.7l0.2-1.4l-5.4-0.9l-0.3,1.4l-1.6,3.3l-3.4,4.2l-3.4-0.9l-0.6-5.4l0.4-3.6l0.5-1.4l-5.1-2.1l-0.6,1.3l-2.4,2.8l-4.4,3.2
		l-3.1-1.9l0.8-5.4l1.4-3.4l0.9-1.1l-4.2-3.4l-0.9,1l-3,2l-5.1,1.9l-2.5-2.6l2.1-5.1l2.1-2.9l1.1-0.9l-3.3-4.4l-1.1,0.8l-3.5,1.3
		l-5.5,0.6l-1.6-3.1l3.4-4.2l2.9-2.4l1.3-0.6l-1.9-5.1l-1.3,0.4l-3.6,0.3l-5.4-0.9l-0.9-3.4l4.4-3.3l3.4-1.4l1.4-0.2L-85.7,22.5z"/>
	<circle fill="none" stroke="#FFFFFF" stroke-width="1" stroke-linejoin="round" cx="-31.4" cy="19.4" r="4.9"/>
</g>
<g transform="translate(132, 84)">
	<path id="gear-5" fill="#50D741" stroke="#FFFFFF" stroke-width="1" stroke-linejoin="round" stroke-miterlimit="10" d="
		M41.3,205.6l-0.9,0.1l-3.8-0.1l-4.9-0.9l-0.5-4.4l4.5-2l3.7-0.9l0.9-0.1l-0.2-5.6l-0.9,0.1l-3.8-0.6l-4.6-1.6l0.1-4.4l4.7-1.4
		l3.8-0.5l0.9,0.1l0.5-5.7l-0.8-0.1l-3.8-1l-4.5-2.2l0.6-4.4l4.8-0.7l3.9,0.1l0.8,0.1l1.1-5.6l-0.9-0.2l-3.5-1.6l-4.1-2.7l1.2-4.2
		l4.9-0.2l3.9,0.5l0.9,0.2l2-5.3l-0.9-0.2l-3.4-2l-3.6-3.1l1.7-4l5,0.6l3.8,1l0.7,0.4l2.7-5.1l-0.7-0.4l-3-2.4l-3.4-3.7l2.2-3.7
		l4.9,1.3l3.5,1.6l0.7,0.4l3.2-4.7L60,126l-2.6-2.9l-2.9-4.1l2.8-3.4l4.5,1.8l3.4,2l0.6,0.6l3.8-4.3l-0.6-0.6l-2.3-3.2l-2.1-4.4
		l3.1-3.1l4.4,2.4l3,2.4l0.6,0.6l4.4-3.6l-0.4-0.6l-1.9-3.4l-1.6-4.6l3.6-2.6l4.1,2.9l2.6,2.9l0.4,0.6l4.8-3.1l-0.5-0.8l-1.4-3.6
		l-1-4.8l3.9-2.1l3.5,3.3l2.2,3.1l0.4,0.8l5.1-2.5l-0.4-0.8l-0.9-3.7l-0.4-4.9l4.1-1.6l3.1,3.9l1.9,3.3l0.4,0.8l5.4-1.8l-0.2-0.9
		l-0.3-3.8l0.3-4.9l4.3-1.1l2.6,4.2l1.5,3.6l0.2,0.9l5.6-0.9l-0.1-0.9l0.1-3.8l0.9-4.9l4.4-0.5l2,4.5l0.9,3.7l0.1,0.9l5.6-0.2
		l-0.1-0.9l0.6-3.8l1.6-4.6l4.4,0.1l1.4,4.7l0.5,3.8l-0.1,0.9l5.6,0.2l0.1-0.8l1-3.8l2.2-4.5l4.4,0.6l0.7,4.8l-0.1,3.9l-0.1,0.8
		l5.6,1.1l0.2-0.9l1.6-3.5l2.7-4.1l4.2,1.2l0.2,4.9l-0.5,3.9l-0.2,0.9l5.3,2l0.3-0.9l2-3.4l3.1-3.6l4,1.7l-0.6,5l-1,3.8l-0.4,0.7
		l5.1,2.7l0.4-0.7l2.4-3l3.7-3.4l3.7,2.2l-1.3,4.9l-1.6,3.5l-0.4,0.7l4.7,3.2l0.4-0.7l2.9-2.6l4.1-2.9l3.3,2.8l-1.8,4.5l-2,3.4
		l-0.6,0.6l4.3,3.8l0.6-0.6l3.2-2.3l4.4-2.1l3.1,3.1l-2.4,4.4l-2.4,3l-0.6,0.6l3.6,4.4l0.6-0.4l3.4-1.9l4.6-1.6l2.6,3.6l-2.9,4.1
		l-2.9,2.6l-0.6,0.4l3.1,4.8l0.8-0.5l3.6-1.4l4.8-1l2.1,3.9l-3.3,3.5l-3.1,2.3l-0.8,0.4l2.5,5.1l0.8-0.4l3.7-0.9l4.9-0.4l1.6,4.1
		l-3.9,3.1l-3.3,1.9l-0.8,0.4l1.8,5.4l0.9-0.2l3.9-0.4l4.9,0.3l1.1,4.3l-4.2,2.6l-3.6,1.5l-0.9,0.2l0.9,5.6l0.9-0.1l3.8,0.1l4.9,0.9
		l0.5,4.4l-4.5,2l-3.7,0.9l-0.9,0.1l0.2,5.6l0.9-0.1l3.8,0.6l4.6,1.6l-0.1,4.4l-4.7,1.4l-3.8,0.5l-0.9-0.1l-0.6,5.8l0.8,0.1l3.8,1
		l4.5,2.2l-0.6,4.4l-4.8,0.7l-3.9-0.1l-0.8-0.1l-1.1,5.6l0.9,0.2l3.5,1.6l4.1,2.7l-1.2,4.2l-4.9,0.2l-3.9-0.5l-0.9-0.2l-2,5.3
		l0.9,0.2l3.4,2l3.6,3.1l-1.7,4l-5-0.6l-3.8-1l-0.7-0.4l-2.6,5l0.7,0.4l3,2.4l3.4,3.7l-2.5,3.9l-4.9-1.3l-3.5-1.6l-0.7-0.4l-3.1,4.7
		l0.7,0.4l2.6,2.9l2.9,4.1l-2.8,3.4l-4.5-1.8l-3.4-2l-0.6-0.6l-3.8,4.3l0.6,0.6l2.3,3.2l2.1,4.4l-3.1,3.1l-4.4-2.5l-3-2.4l-0.6-0.6
		l-4.4,3.6l0.4,0.6l1.9,3.4l1.6,4.6l-3.6,2.6l-4.1-2.9l-2.6-2.9l-0.4-0.6l-4.8,3.1l0.5,0.8l1.4,3.6l1,4.8l-3.9,2.1l-3.5-3.3
		l-2.2-3.1L195,285l-5.1,2.5l0.4,0.8l0.9,3.7l0.4,4.9l-4.1,1.4l-3.1-3.9l-1.9-3.3l-0.4-0.8l-5.4,1.8l0.2,0.9l0.4,3.9l-0.3,4.9
		l-4.3,1.1l-2.6-4.2l-1.4-3.5l-0.2-0.9l-5.6,0.9l0.1,0.9l-0.1,3.8l-0.9,4.9l-4.4,0.5l-2-4.5l-0.9-3.7l-0.1-0.9l-5.6,0.2l0.1,0.9
		l-0.6,3.8l-1.6,4.6l-4.4-0.1l-1.4-4.7l-0.5-3.8l0.1-0.9l-5.7-0.5l-0.1,0.8l-1,3.8l-2.2,4.5l-4.4-0.6l-0.7-4.8l0.1-3.9l0.1-0.8
		l-5.6-1.1l-0.2,0.9l-1.6,3.5l-2.7,4.1l-4.2-1.2l-0.2-4.9l0.5-3.9l0.2-0.9l-5.3-2l-0.2,0.9l-2,3.4l-3.1,3.6l-4-1.7l0.6-5l1-3.8
		l0.4-0.7l-5.1-2.7l-0.4,0.7l-2.4,3l-3.7,3.4l-3.7-2.2l1.3-4.9l1.6-3.5l0.4-0.7l-4.7-3.2l-0.4,0.7l-2.9,2.6l-4.1,2.9l-3.5-2.6
		l1.8-4.5l2-3.4l0.6-0.6l-4.3-3.8l-0.6,0.6l-3.2,2.3l-4.4,2.1l-3.1-3.1l2.4-4.4l2.4-3L67,261l-3.6-4.4l-0.6,0.4l-3.4,1.9l-4.6,1.6
		l-2.6-3.6l2.9-4.1l2.9-2.6l0.6-0.4l-3.1-4.8l-0.8,0.5l-3.6,1.4l-4.8,1l-2.1-3.9l3.3-3.5l3.1-2.2l0.8-0.4l-2.5-5.1l-0.8,0.4
		l-3.7,0.9l-4.9,0.4l-1.6-4.1l3.9-3.1l3.3-1.9l0.8-0.4l-1.8-5.4l-0.9,0.2l-3.9,0.4l-4.9-0.3l-1.1-4.3l4.2-2.6l3.6-1.5l0.9-0.2
		L41.3,205.6z"/>
</g>
<g transform="translate(132, 84)">
	<circle fill="none" stroke="#FFFFFF" stroke-width="1" stroke-linejoin="round" cx="146.5" cy="188.9" r="7.3"/>
</g>
</svg>
